<?xml version="1.0" standalone="no"?>
<!DOCTYPE svg PUBLIC "-//W3C//DTD SVG 20010904//EN"
 "http://www.w3.org/TR/2001/REC-SVG-20010904/DTD/svg10.dtd">
<svg version="1.0" xmlns="http://www.w3.org/2000/svg"
 width="234.000000pt" height="234.000000pt" viewBox="0 0 234.000000 234.000000"
 preserveAspectRatio="xMidYMid meet">
<metadata>
Created by potrace 1.14, written by Peter Selinger 2001-2017
</metadata>
<g transform="translate(0.000000,234.000000) scale(0.100000,-0.100000)"
fill="#000000" stroke="none">
<path d="M475 1768 c-16 -4 -37 -14 -46 -21 -17 -13 -52 -64 -56 -81 -1 -6 -4
-24 -8 -41 -11 -63 -17 -81 -43 -135 -26 -54 -30 -66 -36 -105 -2 -11 -5 -21
-6 -22 -1 -2 -3 -6 -4 -10 -1 -5 -13 -33 -28 -63 -15 -30 -29 -66 -31 -80 -12
-60 -21 -86 -38 -105 -10 -11 -26 -50 -34 -85 -9 -36 -29 -92 -45 -126 -16
-34 -32 -75 -35 -92 -7 -44 -24 -84 -42 -105 -32 -35 -13 -129 29 -143 51 -16
125 40 149 113 7 21 23 58 36 82 12 24 23 54 23 66 0 45 21 85 48 91 15 3 54
16 87 29 56 21 79 26 180 41 22 3 57 9 77 14 43 9 79 -5 88 -35 3 -11 18 -39
33 -62 16 -23 30 -47 31 -55 5 -31 20 -65 41 -93 13 -16 26 -41 30 -55 29 -97
85 -160 143 -160 48 0 62 22 62 99 0 56 -4 73 -25 101 -14 19 -32 57 -40 83
-8 27 -26 74 -41 105 -15 31 -29 72 -31 93 l-5 36 46 5 c91 11 115 49 79 129
-18 42 -41 52 -130 53 -40 1 -58 7 -77 26 -29 26 -76 115 -76 141 0 9 -11 37
-25 60 -14 24 -32 66 -41 94 -19 56 -105 179 -136 196 -37 20 -73 26 -103 17z
m77 -309 c11 -14 20 -50 24 -89 8 -97 11 -107 38 -114 24 -6 44 -41 32 -53 -3
-4 -33 -10 -67 -15 -49 -6 -67 -14 -89 -38 -15 -16 -36 -30 -47 -31 -10 0 -30
-3 -45 -5 -37 -6 -42 9 -13 42 14 16 31 49 39 74 10 37 18 47 44 55 l32 9 0
82 c0 118 12 137 52 83z"/>
<path d="M1327 1764 c-1 -1 -27 -4 -58 -7 -31 -2 -69 -12 -85 -20 l-30 -15 4
-89 c6 -197 11 -381 16 -618 9 -387 13 -437 37 -457 30 -25 88 -30 311 -27
188 4 206 6 238 26 19 12 67 30 105 41 39 11 96 34 129 51 32 17 64 31 71 31
7 0 31 15 53 33 22 17 59 43 82 57 23 14 64 48 91 77 l49 51 -3 86 c-2 47 -5
87 -8 89 -2 2 -21 14 -42 26 -21 13 -44 30 -52 38 -8 8 -15 11 -15 7 0 -3 -6
-1 -14 5 -7 6 -40 18 -72 26 -33 9 -66 18 -74 22 -8 3 -17 7 -20 7 -3 1 -10 4
-16 8 -11 7 -71 22 -134 33 -19 3 -36 8 -38 10 -2 2 17 14 42 27 55 28 139 97
184 151 23 28 32 49 32 75 0 32 -8 45 -68 102 -54 50 -82 69 -128 84 -32 11
-84 31 -114 44 -53 24 -64 25 -263 26 -115 1 -209 0 -210 0z m462 -163 c62
-17 115 -31 116 -31 1 0 10 -18 20 -40 16 -36 16 -41 2 -63 -34 -52 -170 -141
-242 -158 -22 -5 -67 -16 -100 -25 -33 -9 -85 -22 -115 -30 -71 -18 -144 -18
-159 0 -7 8 -14 72 -17 157 l-6 144 54 43 53 44 140 -6 c113 -4 162 -11 254
-35z m165 -507 c140 -46 196 -86 196 -139 0 -44 -118 -134 -231 -174 -35 -13
-68 -27 -74 -31 -18 -13 -74 -22 -290 -46 -33 -3 -81 -10 -108 -14 -31 -5 -50
-3 -56 4 -6 6 -17 68 -26 136 -9 69 -20 141 -25 160 -14 49 5 64 125 95 191
50 357 53 489 9z"/>
</g>
</svg>
